<svg xmlns="http://www.w3.org/2000/svg" xmlns:xlink="http://www.w3.org/1999/xlink" width="853" height="70" viewBox="0 0 853 70" fill="none">
<g >
<path     fill="#0066CC"  d="M12.85 53.7Q9.8 53.7 7.075 53.3Q4.35 52.9 2.75 52.45L2.75 45.8Q3.55 46.1 4.7 46.35Q5.85 46.6 7.15 46.775Q8.45 46.95 9.825 47.075Q11.2 47.2 12.55 47.2Q14.25 47.2 15.425 47Q16.6 46.8 17.325 46.3Q18.05 45.8 18.35 45Q18.65 44.2 18.65 43.05Q18.65 42.05 18.4 41.35Q18.15 40.65 17.475 40.1Q16.8 39.55 15.575 39.1Q14.35 38.65 12.35 38.15Q9.55 37.5 7.725 36.725Q5.9 35.95 4.8 34.825Q3.7 33.7 3.25 32.1Q2.8 30.5 2.8 28.15Q2.8 22.65 6.125 20.325Q9.45 18 15.5 18Q18.45 18 20.725 18.375Q23 18.75 24.4 19.25L24.4 25.5Q23.75 25.3 22.75 25.075Q21.75 24.85 20.55 24.65Q19.35 24.45 18.125 24.35Q16.9 24.25 15.8 24.25Q12.85 24.25 11.525 25Q10.2 25.75 10.2 27.95Q10.2 28.8 10.4 29.4Q10.6 30 11.225 30.475Q11.85 30.95 13.025 31.35Q14.2 31.75 16.1 32.2Q19.2 32.95 21.175 33.875Q23.15 34.8 24.275 36.075Q25.4 37.35 25.8 39.075Q26.2 40.8 26.2 43.25Q26.2 48.35 23.1 51.025Q20 53.7 12.85 53.7ZM48.25 25.7Q50.75 25.7 52.475 26.275Q54.2 26.85 55.25 28Q56.3 29.15 56.75 30.825Q57.2 32.5 57.2 34.75L57.2 53.2L49.95 53.2L49.95 36.65Q49.95 35.3 49.75 34.325Q49.55 33.35 49.075 32.75Q48.6 32.15 47.75 31.875Q46.9 31.6 45.55 31.6Q43.3 31.6 41.85 32.4Q40.4 33.2 39.8 35.3L39.8 53.2L32.55 53.2L32.55 26.2L39.8 26.2L39.8 29.45Q40.9 27.55 43.1 26.625Q45.3 25.7 48.25 25.7ZM67.85 22.45Q66.65 22.45 65.85 22.325Q65.05 22.2 64.6 21.8Q64.15 21.4 63.975 20.65Q63.8 19.9 63.8 18.6Q63.8 17.35 63.975 16.6Q64.15 15.85 64.6 15.45Q65.05 15.05 65.85 14.95Q66.65 14.85 67.85 14.85Q69.1 14.85 69.875 14.95Q70.65 15.05 71.1 15.45Q71.55 15.85 71.725 16.6Q71.9 17.35 71.9 18.6Q71.9 19.9 71.725 20.65Q71.55 21.4 71.1 21.8Q70.65 22.2 69.875 22.325Q69.1 22.45 67.85 22.45ZM64.2 26.2L71.45 26.2L71.45 53.2L64.2 53.2L64.2 26.2ZM103.55 26.2L103.55 51.1Q103.55 53.9 102.8 56.125Q102.05 58.35 100.275 59.925Q98.5 61.5 95.65 62.35Q92.8 63.2 88.6 63.2Q86.75 63.2 84.65 63.025Q82.55 62.85 80.9 62.55L80.9 56.8Q82.5 57.2 84.4 57.4Q86.3 57.6 88.05 57.6Q90.25 57.6 91.825 57.25Q93.4 56.9 94.4 56.125Q95.4 55.35 95.875 54.05Q96.35 52.75 96.35 50.8L96.35 49.35Q95.5 51.15 93.675 52.175Q91.85 53.2 88.2 53.2Q84.9 53.2 82.8 52.2Q80.7 51.2 79.45 49.4Q78.2 47.6 77.725 45.075Q77.25 42.55 77.25 39.45Q77.25 36.7 77.725 34.2Q78.2 31.7 79.45 29.8Q80.7 27.9 82.8 26.8Q84.9 25.7 88.2 25.7Q91.9 25.7 93.725 26.725Q95.55 27.75 96.35 29.65L96.35 26.2L103.55 26.2ZM90.35 47.9Q92.35 47.9 93.6 47.325Q94.85 46.75 95.55 45.675Q96.25 44.6 96.475 43.025Q96.7 41.45 96.7 39.45Q96.7 37.5 96.475 35.975Q96.25 34.45 95.55 33.35Q94.85 32.25 93.6 31.675Q92.35 31.1 90.35 31.1Q88.45 31.1 87.325 31.8Q86.2 32.5 85.625 33.65Q85.05 34.8 84.875 36.3Q84.7 37.8 84.7 39.45Q84.7 41.2 84.875 42.725Q85.05 44.25 85.65 45.4Q86.25 46.55 87.375 47.225Q88.5 47.9 90.35 47.9ZM134.35 37.55Q134.35 38.7 134.275 39.725Q134.2 40.75 134.1 41.3L116.7 42.4Q116.9 45.3 118.65 46.65Q120.4 48 124 48Q125.25 48 126.55 47.825Q127.85 47.65 129.05 47.4Q130.25 47.15 131.275 46.8Q132.3 46.45 132.95 46.1L132.95 51.8Q132.35 52.15 131.325 52.5Q130.3 52.85 128.95 53.1Q127.6 53.35 125.975 53.525Q124.35 53.7 122.6 53.7Q119.5 53.7 117.05 53.05Q114.6 52.4 112.925 50.8Q111.25 49.2 110.35 46.5Q109.45 43.8 109.45 39.7Q109.45 35.6 110.35 32.9Q111.25 30.2 112.95 28.6Q114.65 27 117.15 26.35Q119.65 25.7 122.8 25.7Q126.3 25.7 128.55 26.575Q130.8 27.45 132.1 29.025Q133.4 30.6 133.875 32.775Q134.35 34.95 134.35 37.55ZM127.75 36.5Q127.75 35.4 127.575 34.425Q127.4 33.45 126.875 32.725Q126.35 32 125.375 31.575Q124.4 31.15 122.8 31.15Q121.1 31.15 119.975 31.525Q118.85 31.9 118.15 32.65Q117.45 33.4 117.1 34.575Q116.75 35.75 116.7 37.35L127.75 36.5ZM146.6 34.75Q145.15 34.75 144.3 34.6Q143.45 34.45 142.975 33.975Q142.5 33.5 142.35 32.625Q142.2 31.75 142.2 30.3Q142.2 28.85 142.35 27.975Q142.5 27.1 142.975 26.625Q143.45 26.15 144.3 26Q145.15 25.85 146.6 25.85Q148 25.85 148.875 26Q149.75 26.15 150.225 26.625Q150.7 27.1 150.85 27.975Q151 28.85 151 30.3Q151 31.75 150.85 32.625Q150.7 33.5 150.225 33.975Q149.75 34.45 148.875 34.6Q148 34.75 146.6 34.75ZM146.6 53.5Q145.15 53.5 144.3 53.35Q143.45 53.2 142.975 52.7Q142.5 52.2 142.35 51.35Q142.2 50.5 142.2 49.05Q142.2 47.6 142.35 46.725Q142.5 45.85 142.975 45.375Q143.45 44.9 144.3 44.75Q145.15 44.6 146.6 44.6Q148 44.6 148.875 44.75Q149.75 44.9 150.225 45.375Q150.7 45.85 150.85 46.725Q151 47.6 151 49.05Q151 50.5 150.85 51.35Q150.7 52.2 150.225 52.7Q149.75 53.2 148.875 53.35Q148 53.5 146.6 53.5ZM150.8 34.75Q149.35 34.75 148.5 34.6Q147.65 34.45 147.175 33.975Q146.7 33.5 146.55 32.625Q146.4 31.75 146.4 30.3Q146.4 28.85 146.55 27.975Q146.7 27.1 147.175 26.625Q147.65 26.15 148.5 26Q149.35 25.85 150.8 25.85Q152.2 25.85 153.075 26Q153.95 26.15 154.425 26.625Q154.9 27.1 155.05 27.975Q155.2 28.85 155.2 30.3Q155.2 31.75 155.05 32.625Q154.9 33.5 154.425 33.975Q153.95 34.45 153.075 34.6Q152.2 34.75 150.8 34.75ZM150.8 53.5Q149.35 53.5 148.5 53.35Q147.65 53.2 147.175 52.7Q146.7 52.2 146.55 51.35Q146.4 50.5 146.4 49.05Q146.4 47.6 146.55 46.725Q146.7 45.85 147.175 45.375Q147.65 44.9 148.5 44.75Q149.35 44.6 150.8 44.6Q152.2 44.6 153.075 44.75Q153.95 44.9 154.425 45.375Q154.9 45.85 155.05 46.725Q155.2 47.6 155.2 49.05Q155.2 50.5 155.05 51.35Q154.9 52.2 154.425 52.7Q153.95 53.2 153.075 53.35Q152.2 53.5 150.8 53.5ZM180.6 53.7Q176.8 53.7 173.7 52.95Q170.6 52.2 168.4 50.225Q166.2 48.25 165 44.775Q163.8 41.3 163.8 35.85Q163.8 30.85 164.975 27.425Q166.15 24 168.35 21.9Q170.55 19.8 173.625 18.9Q176.7 18 180.55 18Q185.45 18 188.65 19.15L188.65 25.7Q187.05 25.15 185.15 24.825Q183.25 24.5 181.05 24.5Q178.7 24.5 177 25.075Q175.3 25.65 174.2 26.975Q173.1 28.3 172.575 30.45Q172.05 32.6 172.05 35.8Q172.05 39.2 172.575 41.375Q173.1 43.55 174.2 44.825Q175.3 46.1 176.975 46.6Q178.65 47.1 180.95 47.1Q183.1 47.1 185.075 46.775Q187.05 46.45 189.05 45.75L189.05 52.25Q187.5 52.9 185.3 53.3Q183.1 53.7 180.6 53.7ZM217.7 25.15L208.6 25.15L208.6 53.2L201.05 53.2L201.05 25.15L191.95 25.15L191.95 18.5L217.7 18.5L217.7 25.15ZM230.05 25.1L230.05 33.15L242.65 33.15L242.65 39.7L230.05 39.7L230.05 53.2L222.45 53.2L222.45 18.5L243.65 18.5L243.65 25.1L230.05 25.1Z">
</path>
</g>
<g >
<path     fill="#414141"  d="M280.12 44.84Q284.04 41.72 286.58 39.48Q289.12 37.24 290.58 35.54Q292.04 33.84 292.62 32.5Q293.2 31.16 293.2 29.88Q293.2 28.64 292.8 27.8Q292.4 26.96 291.7 26.48Q291 26 290.04 25.8Q289.08 25.6 288 25.6Q286.64 25.6 285.12 25.8Q283.6 26 281.88 26.52L281.88 22.28Q283.4 21.84 285.18 21.62Q286.96 21.4 288.88 21.4Q293.28 21.4 295.8 23.32Q298.32 25.24 298.32 29.28Q298.32 31.04 297.88 32.58Q297.44 34.12 296.3 35.74Q295.16 37.36 293.16 39.26Q291.16 41.16 288 43.68L286.28 45.04L286.28 45.36L299.16 45.36L299.16 49.56L280.12 49.56L280.12 44.84ZM313.08 49.96Q310.84 49.96 309.04 49.34Q307.24 48.72 305.94 47.12Q304.64 45.52 303.94 42.74Q303.24 39.96 303.24 35.68Q303.24 31.4 303.94 28.64Q304.64 25.88 305.94 24.26Q307.24 22.64 309.04 22.02Q310.84 21.4 313.08 21.4Q315.32 21.4 317.14 22.02Q318.96 22.64 320.24 24.26Q321.52 25.88 322.22 28.64Q322.92 31.4 322.92 35.68Q322.92 39.96 322.22 42.74Q321.52 45.52 320.24 47.12Q318.96 48.72 317.14 49.34Q315.32 49.96 313.08 49.96ZM313.08 45.64Q314.36 45.64 315.26 45.2Q316.16 44.76 316.74 43.66Q317.32 42.56 317.6 40.62Q317.88 38.68 317.88 35.68Q317.88 32.68 317.6 30.76Q317.32 28.84 316.74 27.72Q316.16 26.6 315.26 26.16Q314.36 25.72 313.08 25.72Q311.8 25.72 310.9 26.16Q310 26.6 309.44 27.72Q308.88 28.84 308.6 30.76Q308.32 32.68 308.32 35.68Q308.32 38.68 308.6 40.62Q308.88 42.56 309.44 43.66Q310 44.76 310.9 45.2Q311.8 45.64 313.08 45.64ZM326.92 44.84Q330.84 41.72 333.38 39.48Q335.92 37.24 337.38 35.54Q338.84 33.84 339.42 32.5Q340 31.16 340 29.88Q340 28.64 339.6 27.8Q339.2 26.96 338.5 26.48Q337.8 26 336.84 25.8Q335.88 25.6 334.8 25.6Q333.44 25.6 331.92 25.8Q330.4 26 328.68 26.52L328.68 22.28Q330.2 21.84 331.98 21.62Q333.76 21.4 335.68 21.4Q340.08 21.4 342.6 23.32Q345.12 25.24 345.12 29.28Q345.12 31.04 344.68 32.58Q344.24 34.12 343.1 35.74Q341.96 37.36 339.96 39.26Q337.96 41.16 334.8 43.68L333.08 45.04L333.08 45.36L345.96 45.36L345.96 49.56L326.92 49.56L326.92 44.84ZM369.92 43.32L366.8 43.32L366.8 49.56L361.96 49.56L361.96 43.32L349.36 43.32L349.36 38.24L360.88 21.8L366.8 21.8L366.8 39.04L369.92 39.04L369.92 43.32ZM361.96 39.04L361.96 27.04L361.72 27.04L353.64 38.8L353.64 39.04L361.96 39.04ZM396.814 49.96Q395.574 49.96 394.374 49.88Q393.174 49.8 392.094 49.64Q391.014 49.48 390.134 49.32Q389.254 49.16 388.654 48.96L388.654 44.28Q389.294 44.52 390.214 44.72Q391.134 44.92 392.194 45.08Q393.254 45.24 394.394 45.34Q395.534 45.44 396.654 45.44Q399.534 45.44 400.773 44.62Q402.014 43.8 402.014 41.68Q402.014 40.72 401.794 40.06Q401.574 39.4 400.974 38.9Q400.374 38.4 399.314 38.02Q398.254 37.64 396.534 37.2Q394.333 36.68 392.874 36.08Q391.414 35.48 390.514 34.58Q389.614 33.68 389.234 32.42Q388.854 31.16 388.854 29.32Q388.854 25.08 391.354 23.22Q393.854 21.36 398.694 21.36Q400.934 21.36 402.814 21.66Q404.694 21.96 405.773 22.36L405.773 26.8Q405.214 26.6 404.414 26.42Q403.614 26.24 402.674 26.08Q401.734 25.92 400.734 25.84Q399.734 25.76 398.854 25.76Q396.333 25.76 395.154 26.44Q393.974 27.12 393.974 29.2Q393.974 30 394.134 30.54Q394.294 31.08 394.833 31.5Q395.374 31.92 396.374 32.28Q397.374 32.64 399.014 33.04Q401.454 33.64 403.034 34.32Q404.614 35 405.534 36Q406.454 37 406.833 38.4Q407.214 39.8 407.214 41.76Q407.214 45.84 404.734 47.9Q402.254 49.96 396.814 49.96ZM424.374 27.56Q426.414 27.56 427.794 28.04Q429.174 28.52 430.014 29.44Q430.854 30.36 431.214 31.7Q431.574 33.04 431.574 34.76L431.574 49.56L426.574 49.56L426.574 36.16Q426.574 33.88 425.854 32.8Q425.134 31.72 422.854 31.72Q420.934 31.72 419.594 32.42Q418.254 33.12 417.574 35.16L417.574 49.56L412.574 49.56L412.574 27.96L417.574 27.96L417.574 30.68Q418.494 29 420.314 28.28Q422.134 27.56 424.374 27.56ZM440.214 24.64Q439.374 24.64 438.833 24.56Q438.294 24.48 437.953 24.18Q437.614 23.88 437.494 23.36Q437.374 22.84 437.374 21.92Q437.374 21 437.494 20.46Q437.614 19.92 437.953 19.66Q438.294 19.4 438.833 19.32Q439.374 19.24 440.214 19.24Q441.054 19.24 441.594 19.32Q442.134 19.4 442.474 19.66Q442.814 19.92 442.934 20.46Q443.054 21 443.054 21.92Q443.054 22.84 442.934 23.36Q442.814 23.88 442.474 24.18Q442.134 24.48 441.594 24.56Q441.054 24.64 440.214 24.64ZM437.694 27.96L442.694 27.96L442.694 49.56L437.694 49.56L437.694 27.96ZM468.294 27.96L468.294 47.92Q468.294 50.16 467.674 51.94Q467.054 53.72 465.694 54.98Q464.334 56.24 462.154 56.9Q459.974 57.56 456.814 57.56Q455.374 57.56 453.774 57.4Q452.174 57.24 450.974 57.04L450.974 53Q452.214 53.32 453.674 53.46Q455.134 53.6 456.534 53.6Q460.094 53.6 461.714 52.28Q463.334 50.96 463.334 47.68L463.334 46.16Q462.654 47.76 461.154 48.66Q459.654 49.56 456.654 49.56Q454.014 49.56 452.294 48.76Q450.574 47.96 449.574 46.52Q448.574 45.08 448.194 43.06Q447.814 41.04 447.814 38.56Q447.814 36.32 448.194 34.32Q448.574 32.32 449.574 30.82Q450.574 29.32 452.294 28.44Q454.014 27.56 456.654 27.56Q458.174 27.56 459.294 27.82Q460.414 28.08 461.214 28.54Q462.014 29 462.514 29.66Q463.014 30.32 463.334 31.12L463.334 27.96L468.294 27.96ZM457.934 45.8Q459.654 45.8 460.754 45.32Q461.854 44.84 462.474 43.9Q463.094 42.96 463.314 41.62Q463.534 40.28 463.534 38.56Q463.534 36.92 463.314 35.6Q463.094 34.28 462.474 33.34Q461.854 32.4 460.754 31.9Q459.654 31.4 457.934 31.4Q456.254 31.4 455.294 32Q454.334 32.6 453.814 33.58Q453.294 34.56 453.154 35.86Q453.014 37.16 453.014 38.56Q453.014 40.08 453.174 41.38Q453.334 42.68 453.854 43.68Q454.374 44.68 455.334 45.24Q456.294 45.8 457.934 45.8ZM492.854 36.88Q492.854 37.68 492.794 38.42Q492.734 39.16 492.654 39.72L478.494 40.64Q478.574 43.36 480.014 44.64Q481.454 45.92 484.694 45.92Q485.654 45.92 486.674 45.8Q487.694 45.68 488.634 45.46Q489.574 45.24 490.374 44.98Q491.174 44.72 491.734 44.44L491.734 48.52Q490.774 49.08 488.614 49.52Q486.454 49.96 483.814 49.96Q481.334 49.96 479.414 49.44Q477.494 48.92 476.174 47.64Q474.854 46.36 474.154 44.2Q473.454 42.04 473.454 38.76Q473.454 35.48 474.154 33.32Q474.854 31.16 476.174 29.88Q477.494 28.6 479.414 28.08Q481.334 27.56 483.814 27.56Q486.614 27.56 488.374 28.3Q490.134 29.04 491.134 30.32Q492.134 31.6 492.494 33.28Q492.854 34.96 492.854 36.88ZM488.214 36.36Q488.214 35.36 488.074 34.46Q487.934 33.56 487.454 32.88Q486.974 32.2 486.114 31.8Q485.254 31.4 483.814 31.4Q482.294 31.4 481.294 31.76Q480.294 32.12 479.694 32.84Q479.094 33.56 478.814 34.62Q478.534 35.68 478.494 37.08L488.214 36.36ZM510.453 49.96Q507.453 49.96 505.034 49.36Q502.614 48.76 500.893 47.18Q499.174 45.6 498.234 42.82Q497.294 40.04 497.294 35.68Q497.294 31.68 498.234 28.94Q499.174 26.2 500.893 24.52Q502.614 22.84 505.054 22.12Q507.494 21.4 510.534 21.4Q512.534 21.4 514.073 21.62Q515.614 21.84 516.893 22.28L516.893 26.88Q515.614 26.44 514.134 26.18Q512.654 25.92 510.854 25.92Q508.814 25.92 507.314 26.4Q505.814 26.88 504.833 28.02Q503.854 29.16 503.374 31.02Q502.893 32.88 502.893 35.64Q502.893 38.56 503.354 40.44Q503.814 42.32 504.773 43.42Q505.734 44.52 507.194 44.94Q508.654 45.36 510.654 45.36Q512.494 45.36 514.054 45.1Q515.614 44.84 517.214 44.28L517.214 48.8Q515.974 49.28 514.234 49.62Q512.494 49.96 510.453 49.96ZM539.894 26.4L532.333 26.4L532.333 49.56L527.094 49.56L527.094 26.4L519.573 26.4L519.573 21.8L539.894 21.8L539.894 26.4ZM549.094 26.36L549.094 33.68L559.494 33.68L559.494 38.24L549.094 38.24L549.094 49.56L543.854 49.56L543.854 21.8L560.294 21.8L560.294 26.36L549.094 26.36ZM611.827 19.2L611.827 47.96Q611.827 49.44 611.647 50.42Q611.467 51.4 610.907 52.04Q610.347 52.68 609.287 53Q608.227 53.32 606.507 53.44L603.827 53.64L602.547 49.64L605.067 49.48Q606.867 49.36 607.427 48.78Q607.987 48.2 607.987 46.84L607.987 45.36L605.627 47.28Q604.947 45.76 604.067 43.96Q603.187 42.16 602.227 40.24Q601.107 42.52 599.827 44.7Q598.547 46.88 597.147 49.04L594.147 46.88Q597.507 41.76 600.147 36.28Q599.107 34.24 598.127 32.52Q597.147 30.8 596.427 29.56Q595.267 32.84 593.907 35.76Q594.787 37.52 595.567 39.16Q596.347 40.8 596.987 42.2L594.027 44.52Q593.587 43.48 593.067 42.32Q592.547 41.16 591.987 39.92Q589.707 44.52 587.147 48.44L584.947 46.8L584.947 53.2L581.107 53.2L581.107 19.2L611.827 19.2ZM604.147 36.2Q605.187 38.16 606.187 40.1Q607.187 42.04 607.987 43.76L607.987 22.88L584.947 22.88L584.947 45.16Q586.307 43.04 587.587 40.7Q588.867 38.36 590.067 35.84Q588.907 33.32 587.747 31.06Q586.587 28.8 585.707 27.28L588.547 25.44Q589.227 26.6 590.087 28.24Q590.947 29.88 591.907 31.76Q592.627 30.04 593.287 28.28Q593.947 26.52 594.507 24.72L597.707 25.96L596.507 29.4L599.187 27.48Q599.787 28.48 600.487 29.68Q601.187 30.88 601.947 32.28Q602.707 30.48 603.347 28.7Q603.987 26.92 604.547 25.12L607.667 26.36Q606.947 28.88 606.067 31.32Q605.187 33.76 604.147 36.2ZM652.587 38.68Q649.547 37.76 646.987 36.6Q644.427 35.44 642.267 33.92Q638.747 36.44 633.787 38.4L649.947 38.4L649.947 53.2L646.387 53.2L646.387 51.48L637.147 51.48L637.147 53.2L633.627 53.2L633.627 38.48L631.627 39.2L630.227 35.72Q635.547 33.88 639.307 31.48Q637.507 29.72 636.107 27.76Q635.467 28.6 634.847 29.42Q634.227 30.24 633.587 30.96L631.027 28.36Q632.067 27.16 633.067 25.68Q634.067 24.2 634.967 22.62Q635.867 21.04 636.627 19.48Q637.387 17.92 637.867 16.64L641.547 17.72Q641.307 18.36 641.027 19Q640.747 19.64 640.427 20.32L650.787 20.32L650.787 23.92Q649.747 26.08 648.387 27.96Q647.027 29.84 645.227 31.52Q648.787 33.56 653.907 34.92L652.587 38.68ZM620.587 31.8Q620.147 31.84 619.847 31.9Q619.547 31.96 619.147 32.04L618.147 28.36Q619.227 27.92 619.747 27.08Q620.187 26.48 620.907 25.26Q621.627 24.04 622.407 22.58Q623.187 21.12 623.927 19.56Q624.667 18 625.227 16.76L628.547 18.36Q627.867 19.72 627.067 21.22Q626.267 22.72 625.507 24.04Q624.747 25.36 624.107 26.4Q623.467 27.44 623.067 27.92Q623.627 27.92 624.707 27.88Q625.787 27.84 626.747 27.76Q627.587 26.28 628.367 24.86Q629.147 23.44 629.747 22.24L632.707 24.12Q631.867 25.72 630.727 27.78Q629.587 29.84 628.447 31.8Q627.307 33.76 626.307 35.36Q625.307 36.96 624.747 37.64Q625.307 37.56 626.067 37.42Q626.827 37.28 627.607 37.14Q628.387 37 629.087 36.86Q629.787 36.72 630.227 36.6L630.307 40.48Q629.987 40.52 628.847 40.68Q627.707 40.84 626.327 41.08Q624.947 41.32 623.647 41.54Q622.347 41.76 621.747 41.92Q621.267 42 620.887 42.1Q620.507 42.2 620.027 42.32L618.947 38.44Q619.747 38.12 620.287 37.8Q620.827 37.48 621.267 36.8Q621.827 36 622.687 34.6Q623.547 33.2 624.587 31.48Q623.427 31.56 622.267 31.64Q621.107 31.72 620.587 31.8ZM638.107 24.64Q638.987 26.04 639.987 27.18Q640.987 28.32 642.147 29.36Q643.547 28.16 644.707 26.8Q645.867 25.44 646.827 23.92L638.547 23.92L638.107 24.64ZM637.147 41.92L637.147 47.96L646.387 47.96L646.387 41.92L637.147 41.92ZM631.747 46.08L631.907 48.32Q631.427 48.4 630.387 48.6Q629.347 48.8 628.027 49.04Q626.707 49.28 625.227 49.56Q623.747 49.84 622.387 50.1Q621.027 50.36 619.887 50.58Q618.747 50.8 618.147 50.92L617.587 47.04Q618.107 46.96 619.187 46.76Q620.267 46.56 621.607 46.32Q622.947 46.08 624.447 45.78Q625.947 45.48 627.327 45.2Q628.707 44.92 629.827 44.7Q630.947 44.48 631.547 44.32L631.747 46.08ZM663.707 29.72L659.747 29.72L659.747 21.56L673.467 21.56Q673.227 20.68 672.987 19.86Q672.747 19.04 672.547 18.36L676.987 17.68L678.267 21.56L690.907 21.56L690.907 29.72L686.987 29.72L686.987 25.32L663.707 25.32L663.707 29.72ZM685.827 36.04Q684.787 38.76 683.527 40.94Q682.267 43.12 680.547 44.92Q683.307 46.12 686.147 47.44Q688.987 48.76 691.867 50.16L689.907 54.24Q686.947 52.72 683.607 51.12Q680.267 49.52 676.827 47.96Q673.787 49.96 669.387 51.48Q664.987 53 658.667 54.36L657.467 50.12Q662.507 49.28 666.147 48.26Q669.787 47.24 672.427 45.96Q669.667 44.76 667.187 43.7Q664.707 42.64 662.587 41.84Q663.467 40.56 664.347 39.08Q665.227 37.6 666.107 36.04L658.027 36.04L658.027 32.24L668.067 32.24Q668.867 30.56 669.567 29Q670.267 27.44 670.827 26.04L674.947 27.44Q674.507 28.56 673.947 29.76Q673.387 30.96 672.827 32.24L692.467 32.24L692.467 36.04L685.827 36.04ZM676.627 43.2Q678.227 41.8 679.327 40.04Q680.427 38.28 681.267 36.04L670.987 36.04Q669.827 38.36 668.747 40.04Q670.507 40.72 672.487 41.5Q674.467 42.28 676.627 43.2ZM716.547 34.04L716.547 39L727.587 39L727.587 42.8L716.547 42.8L716.547 48.6L731.027 48.6L731.027 52.28L698.187 52.28L698.187 48.6L712.307 48.6L712.307 42.8L701.627 42.8L701.627 39L712.307 39L712.307 34.04L702.667 34.04L702.667 31.76Q701.587 32.44 700.427 33.08Q699.267 33.72 698.027 34.4L696.147 30.56Q699.147 29.08 701.647 27.54Q704.147 26 706.227 24.34Q708.307 22.68 709.987 20.88Q711.667 19.08 712.947 17.08L716.267 17.08Q718.867 21.2 723.147 24.54Q727.427 27.88 733.027 30.64L731.027 34.32Q728.627 33.08 726.547 31.84L726.547 34.04L716.547 34.04ZM714.627 21.2Q712.947 23.68 710.567 25.88Q708.187 28.08 705.067 30.2L724.027 30.2Q721.027 28.16 718.667 25.9Q716.307 23.64 714.627 21.2ZM771.907 45.28Q771.867 46.04 771.787 46.74Q771.707 47.44 771.547 48.36Q771.307 49.76 770.967 50.64Q770.627 51.52 770.007 52Q769.387 52.48 768.447 52.66Q767.507 52.84 766.147 52.84L764.347 52.84Q763.107 52.84 762.227 52.64Q761.347 52.44 760.807 51.92Q760.267 51.4 760.007 50.54Q759.747 49.68 759.747 48.4L759.747 17.56L763.547 17.72L763.547 29.16Q764.587 27.52 765.647 25.64Q766.707 23.76 767.467 22.16L770.587 23.76Q770.067 24.84 769.407 26.06Q768.747 27.28 768.047 28.5Q767.347 29.72 766.647 30.84Q765.947 31.96 765.347 32.8L763.547 31.72L763.547 33.16L763.827 32.88Q764.587 33.48 765.507 34.32Q766.427 35.16 767.387 36.1Q768.347 37.04 769.287 37.96Q770.227 38.88 770.947 39.64L768.267 42.48Q767.507 41.52 766.187 40.14Q764.867 38.76 763.547 37.48L763.547 47.16Q763.547 48.2 763.807 48.62Q764.067 49.04 765.107 49.04L766.067 49.04Q766.707 49.04 767.107 48.86Q767.507 48.68 767.727 48.36Q767.947 48.04 768.067 47.6Q768.187 47.16 768.267 46.68Q768.387 45.96 768.447 45.34Q768.507 44.72 768.547 44.08L771.907 45.28ZM753.147 17.68L756.867 17.84L756.867 34.76Q756.867 38.56 756.487 41.3Q756.107 44.04 755.187 46.2Q754.267 48.36 752.647 50.2Q751.027 52.04 748.587 54.04L745.347 51.12Q747.347 49.76 748.727 48.52Q750.107 47.28 750.987 45.94Q751.867 44.6 752.327 42.96Q752.787 41.32 752.987 39.12Q751.827 39.96 750.627 40.72Q749.427 41.48 748.427 42.04L746.707 38.16Q747.187 37.92 747.947 37.48Q748.707 37.04 749.587 36.5Q750.467 35.96 751.407 35.38Q752.347 34.8 753.147 34.24L753.147 31.24L751.067 32.36Q750.827 31.64 750.467 30.66Q750.107 29.68 749.667 28.62Q749.227 27.56 748.767 26.5Q748.307 25.44 747.907 24.56L747.907 28.36L744.787 28.36L744.787 33.64Q745.667 33.28 746.447 32.96Q747.227 32.64 747.867 32.32L748.547 36.24Q747.827 36.56 746.847 37Q745.867 37.44 744.787 37.88L744.787 49.08Q744.787 50.36 744.587 51.12Q744.387 51.88 743.887 52.32Q743.387 52.76 742.507 52.94Q741.627 53.12 740.307 53.24L738.547 53.44L737.307 49.52L739.227 49.32Q740.307 49.2 740.687 48.94Q741.067 48.68 741.067 47.6L741.067 39.4Q739.827 39.88 738.747 40.28Q737.667 40.68 736.907 40.92L735.947 37Q736.907 36.68 738.247 36.2Q739.587 35.72 741.067 35.16L741.067 28.36L737.067 28.36L737.067 24.44L741.067 24.44L741.067 17.6L744.787 17.76L744.787 24.44L747.867 24.44Q747.547 23.92 747.387 23.48L750.387 22.12Q750.987 23.16 751.727 24.82Q752.467 26.48 753.147 28.08L753.147 17.68ZM811.307 45.2Q811.107 46.16 810.747 47.4Q810.387 48.64 809.707 50.24Q808.987 52 807.907 52.72Q806.827 53.44 805.107 53.44Q803.427 53.44 802.087 52.42Q800.747 51.4 799.507 48.88Q799.227 48.32 798.987 47.78Q798.747 47.24 798.507 46.68Q797.147 47.84 795.687 48.9Q794.227 49.96 792.667 50.88L791.187 48.48L791.187 51.48L776.947 51.48L776.947 34.16L781.867 34.16L781.867 18L785.587 18.16L785.587 23.84L792.987 23.84L792.987 27.36L785.587 27.36L785.587 34.16L791.187 34.16L791.187 47.2Q794.547 45.08 797.227 42.72Q796.667 40.68 796.247 38.16Q795.827 35.64 795.467 32.48L790.827 33.2L790.387 29.44L795.107 28.68L794.867 25.92Q794.827 25.28 794.747 24.14Q794.667 23 794.587 21.74Q794.507 20.48 794.427 19.32Q794.347 18.16 794.347 17.52L798.067 17.64Q798.107 19.64 798.287 22Q798.467 24.36 798.667 26.32Q798.707 26.76 798.747 27.2Q798.787 27.64 798.827 28.08L809.907 26.32L810.307 30.12L799.227 31.88Q799.747 36.52 800.467 39.64Q802.267 37.72 803.627 35.76Q804.987 33.8 806.027 31.76L809.147 33.64Q807.787 36.24 805.867 38.84Q803.947 41.44 801.547 43.84Q801.867 44.8 802.207 45.6Q802.547 46.4 802.867 47.08Q803.547 48.36 803.967 48.84Q804.387 49.32 804.987 49.32Q805.547 49.32 805.987 48.88Q806.427 48.44 806.747 47.64Q807.187 46.48 807.467 45.52Q807.747 44.56 808.027 43.48L811.307 45.2ZM805.587 26.28Q805.107 25.76 804.407 25.06Q803.707 24.36 802.907 23.62Q802.107 22.88 801.327 22.16Q800.547 21.44 799.947 20.88L802.387 18.32Q803.027 18.8 803.807 19.46Q804.587 20.12 805.407 20.84Q806.227 21.56 806.967 22.24Q807.707 22.92 808.227 23.4L805.587 26.28ZM787.507 38.04L780.627 38.04L780.627 47.76L787.507 47.76L787.507 38.04ZM820.307 27.16L816.787 27.16L816.787 20.6L830.827 20.6Q830.627 19.88 830.427 19.18Q830.227 18.48 829.987 17.76L833.907 17.08Q834.187 17.8 834.447 18.74Q834.707 19.68 834.987 20.6L848.547 20.6L848.547 27.16L844.987 27.16L844.987 23.48L820.307 23.48L820.307 27.16ZM840.867 37.24Q842.587 38.76 845.047 40.02Q847.507 41.28 850.587 42.24L849.387 45.68Q846.067 44.4 843.267 42.72L843.267 47.64L839.547 47.64L839.547 42.24L825.667 42.24L825.667 47.68L822.067 47.68L822.067 42.8Q820.707 43.64 819.247 44.44Q817.787 45.24 816.187 45.96L814.547 42.76Q817.427 41.6 820.007 40.18Q822.587 38.76 824.307 37.24L816.347 37.24L816.347 34.72L825.747 34.72L825.747 32.88L819.827 32.88L819.827 30.44L825.747 30.44L825.747 28.72L820.387 28.72L820.387 26.16L825.747 26.16L825.747 24.24L829.387 24.4L829.387 26.16L835.907 26.16L835.907 24.24L839.547 24.4L839.547 26.16L844.907 26.16L844.907 28.72L839.547 28.72L839.547 30.44L845.507 30.44L845.507 32.88L839.547 32.88L839.547 34.72L848.947 34.72L848.947 37.24L840.867 37.24ZM829.387 30.44L835.907 30.44L835.907 28.72L829.387 28.72L829.387 30.44ZM829.387 34.72L835.907 34.72L835.907 32.88L829.387 32.88L829.387 34.72ZM838.667 39.4Q838.107 38.88 837.567 38.34Q837.027 37.8 836.547 37.24L828.667 37.24Q828.227 37.8 827.687 38.32Q827.147 38.84 826.587 39.4L838.667 39.4ZM834.867 43.2Q834.587 45.32 833.827 46.94Q833.067 48.56 831.287 49.84Q829.507 51.12 826.487 52.2Q823.467 53.28 818.667 54.32L817.147 50.72Q821.347 50 823.967 49.16Q826.587 48.32 828.047 47.38Q829.507 46.44 830.047 45.36Q830.587 44.28 830.667 43.04L834.867 43.2ZM835.147 46.76Q838.347 47.56 841.227 48.44Q844.107 49.32 847.187 50.56L846.347 54.48Q840.267 51.72 833.987 49.8L835.147 46.76Z">
</path>
</g>
</svg>
